<svg xmlns="http://www.w3.org/2000/svg" viewBox="0 0 127.56 127.56"><defs><style>.cls-1{fill:#fff;stroke:#fff;stroke-miterlimit:10;}.cls-2{fill:none;}</style></defs><g id="Слой_3" data-name="Слой 3"><path class="cls-1" d="M108.75,18.81a63.41,63.41,0,1,0,18.71,45A63.45,63.45,0,0,0,108.75,18.81ZM55.29,85.72a1.81,1.81,0,0,1-1.81,1.8H47.06a1.81,1.81,0,0,1-1.81-1.8V41.85a1.81,1.81,0,0,1,1.81-1.8h6.42a1.81,1.81,0,0,1,1.81,1.8Zm27,0a1.81,1.81,0,0,1-1.81,1.8H74.08a1.81,1.81,0,0,1-1.81-1.8V41.85a1.81,1.81,0,0,1,1.81-1.8H80.5a1.81,1.81,0,0,1,1.81,1.8Z"/><rect class="cls-2" width="127.56" height="127.56"/></g></svg>