<svg xmlns="http://www.w3.org/2000/svg" viewBox="0 0 127.56 127.56"><defs><style>.cls-1{fill:#fff;}.cls-2{fill:none;}</style></defs><g id="Слой_2" data-name="Слой 2"><g id="Слой_3" data-name="Слой 3"><path class="cls-1" d="M108.76,18.81a63.43,63.43,0,1,0,18.7,45A63.49,63.49,0,0,0,108.76,18.81ZM91,65.57,45.42,91.88a2.07,2.07,0,0,1-3.1-1.79V37.47a2.06,2.06,0,0,1,3.1-1.78L91,62A2,2,0,0,1,91,65.57Z"/><path class="cls-2" d="M0,0V127.56H127.56V0ZM91,65.57,45.42,91.88a2.07,2.07,0,0,1-3.1-1.79V37.47a2.06,2.06,0,0,1,3.1-1.78L91,62A2,2,0,0,1,91,65.57Z"/></g></g></svg>